#N canvas 2767 112 669 405 12;
#X declare -path ./externals/mrpeach;
#X obj 151 199 unpack 0 0 0 0;
#X floatatom 151 222 3 0 0 0 - - -;
#X floatatom 182 222 3 0 0 0 - - -;
#X floatatom 214 222 3 0 0 0 - - -;
#X floatatom 246 222 3 0 0 0 - - -;
#X text 111 221 from;
#X obj 131 147 tcpclient;
#X obj 171 173 tgl 15 0 empty empty connected 18 7 0 8 -24198 -13381
-1 0 1;
#X text 202 146 tcpclient opens a tcp socket to send and receive bytes
on;
#X text 182 273 Received messages are output as a list of bytes;
#X obj 131 274 spigot;
#X obj 170 251 tgl 15 0 empty empty enable_print 18 7 0 8 -24198 -13381
-1 0 1;
#X obj 131 303 print >>>;
#X floatatom 306 243 9 0 0 0 - - -;
#X floatatom 356 217 9 0 0 0 - - -;
#X text 425 216 Size of the send buffer;
#X text 203 302 Attempting to print long messages can hang Pd!;
#X obj 306 167 route sent buf blocked;
#X text 376 242 Number of bytes sent;
#X obj 406 193 print sender_blocked!;
#X msg 103 95 connect localhost 9996;
#X obj 25 33 declare -path ./externals/mrpeach;
#X connect 0 0 1 0;
#X connect 0 1 2 0;
#X connect 0 2 3 0;
#X connect 0 3 4 0;
#X connect 6 0 10 0;
#X connect 6 1 0 0;
#X connect 6 2 7 0;
#X connect 6 3 17 0;
#X connect 10 0 12 0;
#X connect 11 0 10 1;
#X connect 17 0 13 0;
#X connect 17 1 14 0;
#X connect 17 2 19 0;
#X connect 20 0 6 0;
