#N canvas 2889 63 594 969 12;
#X declare -path ./externals/mrpeach;
#X msg 98 211 disconnect;
#X obj 73 289 tgl 15 0 empty empty connected 20 7 0 8 -24198 -241291
-1 0 1;
#X text 408 74 <--first;
#X msg 45 105 send 0 1 2 3;
#X msg 63 142 send examples/test.txt;
#X obj 398 180 openpanel;
#X msg 398 204 send \$1;
#X obj 398 161 bng 15 250 50 0 empty empty empty 17 7 0 10 -24198 -241291
-1;
#X text 357 141 send a file;
#X text 420 160 ...any file;
#X text 161 120 send raw data;
#X text 150 170 'send' prefix is optional;
#X msg 74 169 99 98 97;
#X obj 73 266 tcpsend;
#X obj 25 33 declare -path ./externals/mrpeach;
#X floatatom 132 430 3 0 0 0 - - -;
#X floatatom 159 430 3 0 0 0 - - -;
#X floatatom 186 430 3 0 0 0 - - -;
#X floatatom 213 430 3 0 0 0 - - -;
#X text 89 429 from;
#X obj 81 471 print message;
#X obj 81 343 tcpreceive 9997;
#X floatatom 183 382 5 0 0 0 - - -;
#X text 229 380 connections;
#X floatatom 241 430 5 0 0 0 - - -;
#X obj 132 403 unpack 0 0 0 0 0;
#X msg 25 73 connect 2a02:c7f:8c41:c200:b4da:abe4:e974:e465 9997;
#X connect 0 0 13 0;
#X connect 3 0 13 0;
#X connect 4 0 13 0;
#X connect 5 0 6 0;
#X connect 6 0 13 0;
#X connect 7 0 5 0;
#X connect 12 0 13 0;
#X connect 13 0 1 0;
#X connect 21 0 20 0;
#X connect 21 1 25 0;
#X connect 21 2 22 0;
#X connect 25 0 15 0;
#X connect 25 1 16 0;
#X connect 25 2 17 0;
#X connect 25 3 18 0;
#X connect 25 4 24 0;
#X connect 26 0 13 0;
