#N canvas 2304 138 366 227 12;
#X declare -path ./externals/mrpeach;
#X floatatom 69 133 3 0 0 0 - - -;
#X floatatom 96 133 3 0 0 0 - - -;
#X floatatom 123 133 3 0 0 0 - - -;
#X floatatom 150 133 3 0 0 0 - - -;
#X text 26 132 from;
#X obj 18 174 print message;
#X obj 18 46 tcpreceive 9997;
#X floatatom 120 85 5 0 0 0 - - -;
#X text 166 83 connections;
#X floatatom 178 133 5 0 0 0 - - -;
#X obj 69 106 unpack 0 0 0 0 0;
#X obj 17 13 declare -path ./externals/mrpeach;
#X connect 6 0 5 0;
#X connect 6 1 10 0;
#X connect 6 2 7 0;
#X connect 10 0 0 0;
#X connect 10 1 1 0;
#X connect 10 2 2 0;
#X connect 10 3 3 0;
#X connect 10 4 9 0;
