#N canvas 2889 63 560 368 12;
#X declare -path ./externals/mrpeach;
#X msg 98 211 disconnect;
#X obj 73 289 tgl 15 0 empty empty connected 20 7 0 8 -24198 -241291
-1 0 1;
#X text 408 74 <--first;
#X msg 45 105 send 0 1 2 3;
#X msg 63 142 send examples/test.txt;
#X obj 398 180 openpanel;
#X msg 398 204 send \$1;
#X obj 398 161 bng 15 250 50 0 empty empty empty 17 7 0 10 -24198 -241291
-1;
#X text 357 141 send a file;
#X text 420 160 ...any file;
#X text 161 120 send raw data;
#X text 150 170 'send' prefix is optional;
#X msg 74 169 99 98 97;
#X obj 73 266 tcpsend;
#X obj 25 33 declare -path ./externals/mrpeach;
#X msg 25 73 connect localhost 9997;
#X connect 0 0 13 0;
#X connect 3 0 13 0;
#X connect 4 0 13 0;
#X connect 5 0 6 0;
#X connect 6 0 13 0;
#X connect 7 0 5 0;
#X connect 12 0 13 0;
#X connect 13 0 1 0;
#X connect 15 0 13 0;
