#N canvas 721 210 1676 1156 12;
#X obj 234 300 comport 2 9600;
#X msg 88 145 devices;
#X msg 541 241 close;
#X obj 234 102 bng 15 250 50 0 empty empty empty 17 7 0 10 -262144
-1 -1;
#X obj 296 102 bng 15 250 50 0 empty empty empty 17 7 0 10 -262144
-1 -1;
#X obj 234 37 key;
#X obj 148 119 loadbang;
#X msg 148 145 verbose 1;
#N canvas 2703 268 450 224 macbook_usb_ports 0;
#X obj 47 40 inlet;
#X obj 93 40 inlet;
#X msg 47 83 devicename /dev/cu.usbmodem14201;
#X msg 93 123 devicename /dev/cu.usbmodem14101;
#X text 333 122 Bottom USB;
#X text 292 83 Top USB;
#X obj 93 206 outlet;
#X connect 0 0 2 0;
#X connect 1 0 3 0;
#X connect 2 0 6 0;
#X connect 3 0 6 0;
#X restore 450 205 pd macbook_usb_ports;
#X obj 450 178 bng 15 250 50 0 empty empty empty 17 7 0 10 -262144
-1 -1;
#X obj 587 178 bng 15 250 50 0 empty empty empty 17 7 0 10 -262144
-1 -1;
#X text 448 158 Top USB;
#X text 532 157 Bottom USB;
#X msg 451 242 open 3;
#N canvas 179 611 450 224 something 0;
#X obj 18 11 inlet;
#X obj 26 227 outlet;
#X msg 23 113 open 3;
#X connect 0 0 2 0;
#X connect 2 0 1 0;
#X restore 557 312 pd something;
#X obj 235 61 sel 97 115 100 102 103 104 106 107;
#X text 340 35 trigger the solenoids with the a s d f g h j k keys
;
#X obj 361 103 bng 15 250 50 0 empty empty empty 17 7 0 10 -262144
-1 -1;
#X obj 423 103 bng 15 250 50 0 empty empty empty 17 7 0 10 -262144
-1 -1;
#X obj 487 100 bng 15 250 50 0 empty empty empty 17 7 0 10 -262144
-1 -1;
#X obj 549 100 bng 15 250 50 0 empty empty empty 17 7 0 10 -262144
-1 -1;
#X obj 619 102 bng 15 250 50 0 empty empty empty 17 7 0 10 -262144
-1 -1;
#X obj 681 102 bng 15 250 50 0 empty empty empty 17 7 0 10 -262144
-1 -1;
#X msg 361 125 print 2;
#X msg 424 125 print 3;
#X msg 487 122 print 4;
#X msg 549 122 print 5;
#X msg 619 124 print 6;
#X msg 681 124 print 7;
#X msg 234 124 print 0;
#X msg 296 124 print 1;
#X obj 376 415 serial_print any;
#X obj 376 538 r ON;
#X symbolatom 372 582 0 0 0 0 - - -;
#X obj 371 474 s;
#X obj 236 393 print;
#X connect 0 0 31 0;
#X connect 0 0 35 0;
#X connect 1 0 0 0;
#X connect 2 0 0 0;
#X connect 3 0 29 0;
#X connect 4 0 30 0;
#X connect 5 0 15 0;
#X connect 6 0 7 0;
#X connect 7 0 0 0;
#X connect 8 0 0 0;
#X connect 9 0 8 0;
#X connect 9 0 14 0;
#X connect 10 0 8 1;
#X connect 13 0 0 0;
#X connect 14 0 0 0;
#X connect 15 0 3 0;
#X connect 15 1 4 0;
#X connect 15 2 17 0;
#X connect 15 3 18 0;
#X connect 15 4 19 0;
#X connect 15 5 20 0;
#X connect 15 6 21 0;
#X connect 15 7 22 0;
#X connect 17 0 23 0;
#X connect 18 0 24 0;
#X connect 19 0 25 0;
#X connect 20 0 26 0;
#X connect 21 0 27 0;
#X connect 22 0 28 0;
#X connect 23 0 0 0;
#X connect 24 0 0 0;
#X connect 25 0 0 0;
#X connect 26 0 0 0;
#X connect 27 0 0 0;
#X connect 28 0 0 0;
#X connect 29 0 0 0;
#X connect 30 0 0 0;
#X connect 31 0 34 0;
#X connect 31 1 34 1;
#X connect 32 0 33 0;
