#N canvas 2688 707 848 300 12;
#X declare -path ./externals/mrpeach;
#X obj 416 108 tcpserver 9996;
#X floatatom 439 132 5 0 0 0 - - -;
#X floatatom 463 182 5 0 0 0 - - -;
#X obj 487 133 unpack 0 0 0 0;
#X floatatom 487 156 3 0 0 0 - - -;
#X floatatom 518 156 3 0 0 0 - - -;
#X floatatom 550 156 3 0 0 0 - - -;
#X floatatom 584 156 3 0 0 0 - - -;
#X text 444 155 from;
#X text 355 132 connections;
#X obj 416 257 print received;
#X text 393 182 on socket;
#X text 523 107 argument is port number;
#X text 87 109 Received messages are output as lists of bytes;
#X text 26 213 ***WARNING*** Attempting to print long messages can
hang pd!;
#X obj 416 235 spigot;
#X obj 455 215 tgl 15 0 empty empty enable_print 17 7 0 10 -24198 -258699
-45076 1 1;
#X text 563 215 to_client;
#X msg 409 79 print;
#X obj 34 28 declare -path ./externals/mrpeach;
#X connect 0 0 15 0;
#X connect 0 1 1 0;
#X connect 0 2 2 0;
#X connect 0 3 3 0;
#X connect 3 0 4 0;
#X connect 3 1 5 0;
#X connect 3 2 6 0;
#X connect 3 3 7 0;
#X connect 15 0 10 0;
#X connect 16 0 15 1;
#X connect 18 0 0 0;
