#N canvas 304 248 933 442 10;
#X obj 164 16 netreceive -u -b 9055;
#X text 300 16 udp binary (probably best for OSC);
#X obj 164 52 print;
#X text 441 46 9055 (which you can change) is @ \; localhost.... a
port on this computer;
#X text 542 250 Close the connection;
#X text 561 329 creation arguments:;
#X text 629 348 optional -u flag for UDP;
#X text 629 367 optional -b flag for binary;
#X text 499 276 Send messages to "foo" on remote machine;
#X msg 446 250 disconnect;
#X floatatom 446 355 0 0 0 0 - - -;
#X floatatom 463 276 0 0 0 0 - - -;
#X msg 463 303 send 1 2 3 \$1;
#X obj 446 328 netsend -u -b;
#X text 637 159 Connect to "localhost" port number, f 22;
#X obj 520 358 print backward;
#X text 696 197 an additional port argument;
#X text 698 229 messages sent back from receiver;
#X text 696 213 specifies port number for;
#X msg 446 169 connect localhost 9055;
#X text 68 199 In your router settings port 9055 must \; be forwarded
to this computer's local IP \; address.... 192.168.x.x probably \;
and you should set your network card with \; a static address because
if DHCP is on it \; can change and then you will lose the routing.
;
#X text 68 111 The firewall on this computer must be set \; to allow
Pd.exe to access "public" networks \; at least for port 9055 (in this
case) \; but all ports is probably ok as Pd is \; unlikely to be a
hackers target.;
#X text 68 306 Temporarily you can turn on "DMZ".... \; De-Militarized
Zone instead..... but it is a bad and dangerous long term \; solution.
Gamers use it to open all \; ports on their computer to the web.;
#X text 443 84 To send to it from this computer.... \; BUT \; ((DISCONNECT
IT TO FREE SOCKET FOR COMMS \; WITH REMOTE COMPUTER)) \; !!! IT CAN
TAKE SOME TIME FOR A SOCKET TO BE RELEASED !!!;
#X msg 466 211 connect localhost 9055 9056;
#X connect 0 0 2 0;
#X connect 9 0 13 0;
#X connect 11 0 12 0;
#X connect 12 0 13 0;
#X connect 13 0 10 0;
#X connect 13 1 15 0;
#X connect 19 0 13 0;
#X connect 24 0 13 0;
